<?xml version="1.0" encoding="UTF-8"?>
<svg xmlns="http://www.w3.org/2000/svg" xmlns:xlink="http://www.w3.org/1999/xlink" width="421.231pt" height="53.26pt" viewBox="0 0 421.231 53.26">
<defs>
<g>
<g id="glyph-0-0">
<path d="M 7.1875 -2.5 C 7.1875 -2.6875 7 -2.6875 6.859375 -2.6875 L 4.078125 -2.6875 L 4.078125 -5.484375 C 4.078125 -5.625 4.078125 -5.8125 3.875 -5.8125 C 3.671875 -5.8125 3.671875 -5.625 3.671875 -5.484375 L 3.671875 -2.6875 L 0.890625 -2.6875 C 0.75 -2.6875 0.5625 -2.6875 0.5625 -2.5 C 0.5625 -2.296875 0.75 -2.296875 0.890625 -2.296875 L 3.671875 -2.296875 L 3.671875 0.5 C 3.671875 0.640625 3.671875 0.828125 3.875 0.828125 C 4.078125 0.828125 4.078125 0.640625 4.078125 0.5 L 4.078125 -2.296875 L 6.859375 -2.296875 C 7 -2.296875 7.1875 -2.296875 7.1875 -2.5 Z M 7.1875 -2.5 "/>
</g>
<g id="glyph-1-0">
<path d="M 3.875 0 L 3.875 -0.28125 L 3.59375 -0.28125 C 2.75 -0.28125 2.71875 -0.390625 2.71875 -0.71875 L 2.71875 -5.734375 C 2.71875 -5.953125 2.71875 -5.96875 2.5 -5.96875 C 1.9375 -5.40625 1.109375 -5.40625 0.828125 -5.40625 L 0.828125 -5.125 C 1 -5.125 1.546875 -5.125 2.03125 -5.359375 L 2.03125 -0.71875 C 2.03125 -0.390625 2.015625 -0.28125 1.171875 -0.28125 L 0.890625 -0.28125 L 0.890625 0 C 1.203125 -0.03125 2.015625 -0.03125 2.375 -0.03125 C 2.75 -0.03125 3.546875 -0.03125 3.875 0 Z M 3.875 0 "/>
</g>
<g id="glyph-1-1">
<path d="M 4.140625 -1.59375 L 3.890625 -1.59375 C 3.875 -1.46875 3.796875 -0.9375 3.6875 -0.796875 C 3.625 -0.71875 3.015625 -0.71875 2.828125 -0.71875 L 1.234375 -0.71875 L 2.125 -1.5625 C 3.59375 -2.828125 4.140625 -3.3125 4.140625 -4.21875 C 4.140625 -5.25 3.296875 -5.96875 2.1875 -5.96875 C 1.15625 -5.96875 0.453125 -5.15625 0.453125 -4.34375 C 0.453125 -3.890625 0.84375 -3.84375 0.921875 -3.84375 C 1.125 -3.84375 1.390625 -3.984375 1.390625 -4.3125 C 1.390625 -4.578125 1.203125 -4.78125 0.921875 -4.78125 C 0.875 -4.78125 0.859375 -4.78125 0.8125 -4.765625 C 1.03125 -5.40625 1.609375 -5.6875 2.09375 -5.6875 C 3 -5.6875 3.3125 -4.84375 3.3125 -4.21875 C 3.3125 -3.3125 2.625 -2.5625 2.203125 -2.09375 L 0.5625 -0.328125 C 0.453125 -0.21875 0.453125 -0.203125 0.453125 0 L 3.890625 0 Z M 4.140625 -1.59375 "/>
</g>
<g id="glyph-1-2">
<path d="M 4.21875 -1.53125 C 4.21875 -2.3125 3.59375 -2.96875 2.734375 -3.15625 C 3.5625 -3.46875 3.96875 -4.125 3.96875 -4.75 C 3.96875 -5.4375 3.203125 -5.96875 2.265625 -5.96875 C 1.34375 -5.96875 0.640625 -5.4375 0.640625 -4.765625 C 0.640625 -4.46875 0.828125 -4.296875 1.09375 -4.296875 C 1.359375 -4.296875 1.546875 -4.484375 1.546875 -4.75 C 1.546875 -5.0625 1.328125 -5.1875 1.015625 -5.1875 C 1.25 -5.5625 1.796875 -5.75 2.25 -5.75 C 2.984375 -5.75 3.125 -5.15625 3.125 -4.734375 C 3.125 -4.46875 3.078125 -4.03125 2.859375 -3.6875 C 2.578125 -3.296875 2.265625 -3.28125 2 -3.25 C 1.78125 -3.234375 1.765625 -3.234375 1.6875 -3.234375 C 1.609375 -3.234375 1.53125 -3.21875 1.53125 -3.125 C 1.53125 -3 1.609375 -3 1.765625 -3 L 2.171875 -3 C 2.953125 -3 3.296875 -2.375 3.296875 -1.53125 C 3.296875 -0.375 2.6875 -0.046875 2.234375 -0.046875 C 2.0625 -0.046875 1.1875 -0.09375 0.796875 -0.765625 C 1.109375 -0.71875 1.359375 -0.9375 1.359375 -1.25 C 1.359375 -1.546875 1.140625 -1.734375 0.875 -1.734375 C 0.65625 -1.734375 0.390625 -1.59375 0.390625 -1.21875 C 0.390625 -0.421875 1.21875 0.203125 2.265625 0.203125 C 3.375 0.203125 4.21875 -0.609375 4.21875 -1.53125 Z M 4.21875 -1.53125 "/>
</g>
<g id="glyph-1-3">
<path d="M 4.34375 -1.484375 L 4.34375 -1.765625 L 3.421875 -1.765625 L 3.421875 -5.828125 C 3.421875 -6.015625 3.421875 -6.078125 3.25 -6.078125 C 3.140625 -6.078125 3.140625 -6.0625 3.0625 -5.9375 L 0.265625 -1.765625 L 0.265625 -1.484375 L 2.703125 -1.484375 L 2.703125 -0.703125 C 2.703125 -0.375 2.6875 -0.28125 2.015625 -0.28125 L 1.8125 -0.28125 L 1.8125 0 C 2.375 -0.03125 3 -0.03125 3.0625 -0.03125 C 3.109375 -0.03125 3.765625 -0.03125 4.328125 0 L 4.328125 -0.28125 L 4.125 -0.28125 C 3.453125 -0.28125 3.421875 -0.375 3.421875 -0.703125 L 3.421875 -1.484375 Z M 2.765625 -1.765625 L 0.546875 -1.765625 L 2.765625 -5.078125 Z M 2.765625 -1.765625 "/>
</g>
<g id="glyph-1-4">
<path d="M 4.140625 -1.796875 C 4.140625 -2.875 3.375 -3.765625 2.390625 -3.765625 C 1.96875 -3.765625 1.53125 -3.625 1.203125 -3.296875 L 1.203125 -5.0625 C 1.484375 -4.984375 1.765625 -4.9375 2.03125 -4.9375 C 3.140625 -4.9375 3.78125 -5.734375 3.78125 -5.859375 C 3.78125 -5.9375 3.734375 -5.96875 3.6875 -5.96875 C 3.6875 -5.96875 3.65625 -5.96875 3.5625 -5.921875 C 3.140625 -5.765625 2.734375 -5.6875 2.359375 -5.6875 C 1.96875 -5.6875 1.5625 -5.765625 1.15625 -5.921875 C 1.0625 -5.96875 1.046875 -5.96875 1.046875 -5.96875 C 0.9375 -5.96875 0.9375 -5.890625 0.9375 -5.734375 L 0.9375 -3.09375 C 0.9375 -2.9375 0.9375 -2.828125 1.0625 -2.828125 C 1.125 -2.828125 1.15625 -2.875 1.203125 -2.953125 C 1.484375 -3.328125 1.90625 -3.546875 2.375 -3.546875 C 3.34375 -3.546875 3.34375 -2.15625 3.34375 -1.84375 C 3.34375 -1.5625 3.34375 -1 3.078125 -0.59375 C 2.84375 -0.21875 2.46875 -0.046875 2.109375 -0.046875 C 1.59375 -0.046875 0.984375 -0.390625 0.765625 -1.046875 C 0.765625 -1.046875 0.828125 -1.03125 0.890625 -1.03125 C 1.078125 -1.03125 1.34375 -1.140625 1.34375 -1.46875 C 1.34375 -1.75 1.140625 -1.90625 0.890625 -1.90625 C 0.703125 -1.90625 0.453125 -1.796875 0.453125 -1.4375 C 0.453125 -0.625 1.140625 0.203125 2.140625 0.203125 C 3.21875 0.203125 4.140625 -0.6875 4.140625 -1.796875 Z M 4.140625 -1.796875 "/>
</g>
<g id="glyph-1-5">
<path d="M 4.21875 -1.828125 C 4.21875 -2.953125 3.390625 -3.828125 2.375 -3.828125 C 1.84375 -3.828125 1.453125 -3.5 1.203125 -2.96875 C 1.203125 -3.890625 1.296875 -4.390625 1.546875 -4.859375 C 1.71875 -5.234375 2.15625 -5.75 2.828125 -5.75 C 3 -5.75 3.421875 -5.71875 3.625 -5.390625 C 3.296875 -5.390625 3.140625 -5.21875 3.140625 -4.984375 C 3.140625 -4.75 3.3125 -4.5625 3.5625 -4.5625 C 3.8125 -4.5625 3.984375 -4.734375 3.984375 -5 C 3.984375 -5.5 3.625 -5.96875 2.8125 -5.96875 C 1.65625 -5.96875 0.390625 -4.828125 0.390625 -2.828125 C 0.390625 -0.40625 1.484375 0.203125 2.328125 0.203125 C 3.3125 0.203125 4.21875 -0.640625 4.21875 -1.828125 Z M 3.40625 -1.828125 C 3.40625 -1.40625 3.40625 -0.953125 3.234375 -0.625 C 2.953125 -0.109375 2.5625 -0.046875 2.3125 -0.046875 C 1.796875 -0.046875 1.5 -0.46875 1.40625 -0.734375 C 1.234375 -1.140625 1.21875 -1.890625 1.21875 -2.03125 C 1.21875 -2.625 1.5 -3.59375 2.359375 -3.59375 C 2.5 -3.59375 2.9375 -3.59375 3.234375 -3.046875 C 3.40625 -2.703125 3.40625 -2.265625 3.40625 -1.828125 Z M 3.40625 -1.828125 "/>
</g>
</g>
</defs>
<g fill="rgb(31.373596%, 63.134766%, 30.979919%)" fill-opacity="1">
<use xlink:href="#glyph-0-0" x="32.089" y="19.255"/>
</g>
<g fill="rgb(31.373596%, 63.134766%, 30.979919%)" fill-opacity="1">
<use xlink:href="#glyph-0-0" x="60.435" y="19.255"/>
</g>
<g fill="rgb(31.373596%, 63.134766%, 30.979919%)" fill-opacity="1">
<use xlink:href="#glyph-0-0" x="88.782" y="19.255"/>
</g>
<g fill="rgb(31.373596%, 63.134766%, 30.979919%)" fill-opacity="1">
<use xlink:href="#glyph-0-0" x="117.128" y="19.255"/>
</g>
<g fill="rgb(31.373596%, 63.134766%, 30.979919%)" fill-opacity="1">
<use xlink:href="#glyph-0-0" x="145.475" y="19.255"/>
</g>
<g fill="rgb(31.373596%, 63.134766%, 30.979919%)" fill-opacity="1">
<use xlink:href="#glyph-0-0" x="173.821" y="19.255"/>
</g>
<path fill="none" stroke-width="1.19553" stroke-linecap="butt" stroke-linejoin="miter" stroke="rgb(31.373596%, 63.134766%, 30.979919%)" stroke-opacity="1" stroke-miterlimit="10" d="M 14.172063 14.1725 L 14.172063 42.520156 L 184.254094 42.520156 L 184.254094 14.1725 Z M 14.172063 14.1725 " transform="matrix(1, 0, 0, -1, 7.617, 45.11)"/>
<g fill="rgb(31.373596%, 63.134766%, 30.979919%)" fill-opacity="1">
<use xlink:href="#glyph-1-0" x="33.659" y="47.947"/>
</g>
<g fill="rgb(31.373596%, 63.134766%, 30.979919%)" fill-opacity="1">
<use xlink:href="#glyph-1-1" x="62.006" y="47.947"/>
</g>
<g fill="rgb(31.373596%, 63.134766%, 30.979919%)" fill-opacity="1">
<use xlink:href="#glyph-1-2" x="90.352" y="47.947"/>
</g>
<g fill="rgb(31.373596%, 63.134766%, 30.979919%)" fill-opacity="1">
<use xlink:href="#glyph-1-3" x="118.699" y="47.947"/>
</g>
<g fill="rgb(31.373596%, 63.134766%, 30.979919%)" fill-opacity="1">
<use xlink:href="#glyph-1-4" x="147.045" y="47.947"/>
</g>
<g fill="rgb(31.373596%, 63.134766%, 30.979919%)" fill-opacity="1">
<use xlink:href="#glyph-1-5" x="175.392" y="47.947"/>
</g>
<g fill="rgb(31.373596%, 63.134766%, 30.979919%)" fill-opacity="1">
<use xlink:href="#glyph-1-0" x="5.313" y="19.6"/>
</g>
<path fill-rule="nonzero" fill="rgb(25.097656%, 47.059631%, 94.900513%)" fill-opacity="1" stroke-width="0.3985" stroke-linecap="butt" stroke-linejoin="miter" stroke="rgb(25.097656%, 47.059631%, 94.900513%)" stroke-opacity="1" stroke-miterlimit="10" d="M 94.961125 28.348281 L 85.03925 18.426406 L 75.117375 28.348281 L 85.03925 38.270156 Z M 94.961125 28.348281 " transform="matrix(1, 0, 0, -1, 7.617, 45.11)"/>
<path fill-rule="nonzero" fill="rgb(25.097656%, 47.059631%, 94.900513%)" fill-opacity="1" stroke-width="0.3985" stroke-linecap="butt" stroke-linejoin="miter" stroke="rgb(25.097656%, 47.059631%, 94.900513%)" stroke-opacity="1" stroke-miterlimit="10" d="M 151.656438 28.348281 L 141.734563 18.426406 L 131.812688 28.348281 L 141.734563 38.270156 Z M 151.656438 28.348281 " transform="matrix(1, 0, 0, -1, 7.617, 45.11)"/>
<path fill-rule="nonzero" fill="rgb(25.097656%, 47.059631%, 94.900513%)" fill-opacity="1" stroke-width="0.3985" stroke-linecap="butt" stroke-linejoin="miter" stroke="rgb(25.097656%, 47.059631%, 94.900513%)" stroke-opacity="1" stroke-miterlimit="10" d="M 180.004094 28.348281 L 170.082219 18.426406 L 160.160344 28.348281 L 170.082219 38.270156 Z M 180.004094 28.348281 " transform="matrix(1, 0, 0, -1, 7.617, 45.11)"/>
<path fill-rule="nonzero" fill="rgb(59.606934%, 40.783691%, 0.390625%)" fill-opacity="1" stroke-width="0.3985" stroke-linecap="butt" stroke-linejoin="miter" stroke="rgb(59.606934%, 40.783691%, 0.390625%)" stroke-opacity="1" stroke-miterlimit="10" d="M 19.843938 36.852188 L 28.347844 36.852188 L 36.85175 28.348281 L 28.347844 19.844375 L 19.843938 19.844375 Z M 19.843938 36.852188 " transform="matrix(1, 0, 0, -1, 7.617, 45.11)"/>
<g fill="rgb(31.373596%, 63.134766%, 30.979919%)" fill-opacity="1">
<use xlink:href="#glyph-0-0" x="258.861" y="19.255"/>
</g>
<g fill="rgb(31.373596%, 63.134766%, 30.979919%)" fill-opacity="1">
<use xlink:href="#glyph-0-0" x="287.207" y="19.255"/>
</g>
<g fill="rgb(31.373596%, 63.134766%, 30.979919%)" fill-opacity="1">
<use xlink:href="#glyph-0-0" x="315.553" y="19.255"/>
</g>
<g fill="rgb(31.373596%, 63.134766%, 30.979919%)" fill-opacity="1">
<use xlink:href="#glyph-0-0" x="343.9" y="19.255"/>
</g>
<g fill="rgb(31.373596%, 63.134766%, 30.979919%)" fill-opacity="1">
<use xlink:href="#glyph-0-0" x="372.246" y="19.255"/>
</g>
<g fill="rgb(31.373596%, 63.134766%, 30.979919%)" fill-opacity="1">
<use xlink:href="#glyph-0-0" x="400.593" y="19.255"/>
</g>
<path fill="none" stroke-width="1.19553" stroke-linecap="butt" stroke-linejoin="miter" stroke="rgb(31.373596%, 63.134766%, 30.979919%)" stroke-opacity="1" stroke-miterlimit="10" d="M 240.949406 14.1725 L 240.949406 42.520156 L 411.027531 42.520156 L 411.027531 14.1725 Z M 240.949406 14.1725 " transform="matrix(1, 0, 0, -1, 7.617, 45.11)"/>
<g fill="rgb(31.373596%, 63.134766%, 30.979919%)" fill-opacity="1">
<use xlink:href="#glyph-1-0" x="260.431" y="47.947"/>
</g>
<g fill="rgb(31.373596%, 63.134766%, 30.979919%)" fill-opacity="1">
<use xlink:href="#glyph-1-1" x="288.778" y="47.947"/>
</g>
<g fill="rgb(31.373596%, 63.134766%, 30.979919%)" fill-opacity="1">
<use xlink:href="#glyph-1-2" x="317.124" y="47.947"/>
</g>
<g fill="rgb(31.373596%, 63.134766%, 30.979919%)" fill-opacity="1">
<use xlink:href="#glyph-1-3" x="345.47" y="47.947"/>
</g>
<g fill="rgb(31.373596%, 63.134766%, 30.979919%)" fill-opacity="1">
<use xlink:href="#glyph-1-4" x="373.817" y="47.947"/>
</g>
<g fill="rgb(31.373596%, 63.134766%, 30.979919%)" fill-opacity="1">
<use xlink:href="#glyph-1-5" x="402.163" y="47.947"/>
</g>
<g fill="rgb(31.373596%, 63.134766%, 30.979919%)" fill-opacity="1">
<use xlink:href="#glyph-1-0" x="232.085" y="19.6"/>
</g>
<path fill-rule="nonzero" fill="rgb(25.097656%, 47.059631%, 94.900513%)" fill-opacity="1" stroke-width="0.3985" stroke-linecap="butt" stroke-linejoin="miter" stroke="rgb(25.097656%, 47.059631%, 94.900513%)" stroke-opacity="1" stroke-miterlimit="10" d="M 265.043156 28.348281 L 255.121281 18.426406 L 245.199406 28.348281 L 255.121281 38.270156 Z M 265.043156 28.348281 " transform="matrix(1, 0, 0, -1, 7.617, 45.11)"/>
<path fill-rule="nonzero" fill="rgb(25.097656%, 47.059631%, 94.900513%)" fill-opacity="1" stroke-width="0.3985" stroke-linecap="butt" stroke-linejoin="miter" stroke="rgb(25.097656%, 47.059631%, 94.900513%)" stroke-opacity="1" stroke-miterlimit="10" d="M 293.390812 28.348281 L 283.468937 18.426406 L 273.547062 28.348281 L 283.468937 38.270156 Z M 293.390812 28.348281 " transform="matrix(1, 0, 0, -1, 7.617, 45.11)"/>
<path fill-rule="nonzero" fill="rgb(25.097656%, 47.059631%, 94.900513%)" fill-opacity="1" stroke-width="0.3985" stroke-linecap="butt" stroke-linejoin="miter" stroke="rgb(25.097656%, 47.059631%, 94.900513%)" stroke-opacity="1" stroke-miterlimit="10" d="M 350.082219 28.348281 L 340.160344 18.426406 L 330.238469 28.348281 L 340.160344 38.270156 Z M 350.082219 28.348281 " transform="matrix(1, 0, 0, -1, 7.617, 45.11)"/>
<path fill-rule="nonzero" fill="rgb(59.606934%, 40.783691%, 0.390625%)" fill-opacity="1" stroke-width="0.3985" stroke-linecap="butt" stroke-linejoin="miter" stroke="rgb(59.606934%, 40.783691%, 0.390625%)" stroke-opacity="1" stroke-miterlimit="10" d="M 388.35175 36.852188 L 396.855656 36.852188 L 405.359562 28.348281 L 396.855656 19.844375 L 388.35175 19.844375 Z M 388.35175 36.852188 " transform="matrix(1, 0, 0, -1, 7.617, 45.11)"/>
</svg>
